<svg width="360" height="349" viewBox="0 0 360 349" fill="none" xmlns="http://www.w3.org/2000/svg">
<path fill-rule="evenodd" clip-rule="evenodd" d="M226.772 -57C336.227 -57 332.065 134.815 332.513 135.951C332.974 137.122 333.409 138.326 333.829 139.496C334.683 141.87 335.781 144.156 336.635 146.515C337.157 147.954 338.118 149.146 338.761 150.505C340.009 153.102 341.538 155.579 343.326 157.9C344.065 158.82 344.645 159.836 345.047 160.913C345.329 161.738 346.265 161.958 346.669 162.686C347.323 163.865 348.194 164.941 348.948 166.073C349.12 166.471 349.514 166.754 349.98 166.813L349.833 167.936C350.106 168.341 350.199 167.793 350.485 167.89C350.843 168.328 351.353 168.718 351.405 169.385C351.452 170.012 352.257 170.071 352.532 170.619C353.136 171.806 354.815 172.412 354.79 173.971C355.997 174.66 356.59 175.844 357.501 176.773C357.969 177.201 358.254 177.764 358.308 178.362L358.316 178.5C358.31 179.095 359.571 178.961 359.232 179.772C361.163 181.092 361.664 183.247 362.684 185.032C364.319 187.897 366.205 190.665 367.315 193.802C367.871 195.371 368.95 196.856 369.55 198.445C370.899 202.017 372.518 205.511 373.395 209.23C373.756 210.767 374.494 212.23 374.84 213.771L375.239 215.552C375.833 218.225 376.396 220.904 376.77 223.612C376.962 224.223 376.962 224.87 376.77 225.481C376.448 226.177 377.303 226.622 377.372 227.319C377.458 228.147 377.094 228.931 377.356 229.809C377.5 230.293 377.356 231.07 377.522 231.632C378.059 233.458 377.378 235.341 377.963 237.155C378.055 237.856 377.974 238.567 377.726 239.236C377.321 241.469 378.062 243.749 377.323 245.929C376.977 247.004 376.911 248.136 377.129 249.237L377.22 249.661C377.286 249.975 377.329 250.281 377.159 250.493C376.486 251.33 376.66 252.318 376.526 253.233L376.5 253.385C376.306 254.411 376.506 255.485 376.166 256.53C375.701 257.553 375.44 258.642 375.396 259.748C375.568 261.623 374.874 263.306 374.449 265.046C374.237 265.916 374.412 266.95 373.361 267.597C372.826 267.926 374.088 268.565 373.323 269.046L373.233 269.097C372.671 269.386 372.695 269.851 372.854 270.409C372.999 270.919 372.02 271.271 372.3 271.793C372.58 272.314 372.706 273.074 372.379 273.169C371.562 273.414 372.393 274.223 371.707 274.376C371.639 274.41 371.592 274.47 371.58 274.538C371.346 276.497 369.961 278.104 369.618 280.062C369.359 281.23 368.858 282.344 368.144 283.344C367.552 284.309 367.049 285.317 366.64 286.358C365.872 288.108 364.557 289.57 363.816 291.312C363.615 291.783 362.273 291.625 362.955 292.593C362.172 292.844 362.41 293.582 362.095 294.043C361.749 294.391 361.345 294.689 360.898 294.925C360.609 295.962 360.055 296.922 359.281 297.728C357.929 299.527 356.454 301.248 354.863 302.878L353.549 304.217C351.792 306.003 349.979 307.75 347.664 308.981C347.069 309.297 347.34 309.897 346.85 310.222C344.012 312.129 341.398 314.292 338.169 315.737C336.818 316.343 335.659 317.418 334.278 318.048C331.66 319.244 329.229 320.733 326.429 321.664L325.931 321.823C324.147 322.363 322.392 323.181 320.582 323.775C316.863 325.105 312.981 326.023 309.021 326.509L306.578 326.755C304.406 326.974 302.232 327.175 300.038 327.23C299 327.256 298.004 326.956 297.053 327.064C296.128 327.171 295.188 327.102 294.293 326.862C293.586 326.682 292.988 327.235 292.227 326.938C291.642 326.605 290.918 326.555 290.288 326.798L290.164 326.851C289.802 327.041 289.092 326.689 288.542 326.576C287.74 326.474 286.952 326.297 286.191 326.047C285.601 325.799 284.848 326.597 284.437 325.748C283.691 326.275 232.981 315.309 186.399 337.579C182.606 339.866 178.167 340.871 174.114 342.647C172.229 343.475 170.111 343.853 168.083 344.418L167.649 344.542C164.069 345.595 160.397 346.314 156.73 347.065C153.362 347.729 149.948 348.19 146.513 348.447C144.043 348.65 141.561 348.744 139.097 348.989C138.098 349.088 137.118 348.447 136.141 348.998C133.944 348.454 131.638 349.114 129.447 348.499C127.99 348.892 126.621 348.405 125.281 348.046C124.259 347.77 123.296 348.343 122.263 347.937C121.323 347.49 120.27 347.278 119.211 347.32C117.452 347.565 115.921 346.978 114.318 346.667C110.596 345.946 106.886 345.166 103.19 344.327C101.979 344.052 100.62 344.158 99.5827 343.316C98.673 342.576 97.2372 343.04 96.3432 342.167C96.0169 341.849 95.6007 342.465 95.1093 342.225C94.1509 341.756 92.919 342.065 92.0234 341.22C91.3599 340.594 90.1078 341.018 89.3733 340.262L89.2764 340.152C88.8431 339.604 87.699 340.895 87.3606 339.675C85.9937 339.58 84.8608 338.902 83.6435 338.437C82.6352 338.053 81.445 338.27 80.535 337.471C79.7596 336.79 78.2941 337.291 77.6224 336.27C75.9792 336.258 74.7672 335.138 73.2011 334.844C72.0123 334.56 70.8708 334.132 69.807 333.573C68.1206 332.784 66.4081 332.04 64.683 331.335C64.064 331.073 63.4615 330.78 62.8781 330.458C62.551 330.283 62.4715 329.898 62.0042 329.804C59.046 329.208 56.558 327.639 54.0311 326.266C52.5902 325.588 51.2115 324.807 49.9081 323.93L49.4765 323.634C49.095 323.335 48.3028 323.188 47.9674 322.773C47.0324 321.617 45.6338 321.052 44.3657 320.358L44.1556 320.241C43.4411 319.858 42.7917 319.382 42.2277 318.83C42.1209 318.724 42.0775 318.496 41.9641 318.47C39.859 317.997 38.6028 316.415 36.9933 315.309C35.6089 314.358 34.3979 313.199 33.0347 312.23L32.5157 311.876C29.3254 309.8 -5.58346 274.841 -9.53914 268.807L-10.6711 267.081C-11.8015 265.351 -12.9189 263.609 -13.9477 261.832L-14.8238 260.319C-15.6985 258.803 -16.5595 257.276 -17.3207 255.723L-18.3392 253.65C-20.3711 249.5 -22.3593 245.33 -24.0539 241.047C-25.5651 237.225 -26.8161 233.34 -28.0791 229.452C-28.888 226.956 -29.5716 224.448 -30.149 221.905C-31.0716 217.84 -31.8943 213.759 -32.6171 209.662C-33.2913 205.803 -33.0419 201.889 -33.9422 198.074C-33.3523 195.732 -34.4367 193.354 -33.7634 191.014C-34.2629 189.859 -33.8237 188.66 -33.7767 187.522C-33.7286 186.346 -34.0184 185.114 -33.5025 183.923C-33.2662 183.382 -33.8124 182.731 -33.5165 182.07C-33.1915 181.52 -33.154 180.867 -33.4142 180.289C-32.5371 179.922 -33.5826 179.357 -33.2183 178.835C-32.8256 178.267 -32.6521 177.597 -32.7253 176.93C-32.9807 175.438 -32.036 174.059 -32.2018 172.711C-32.3748 171.332 -31.6264 170.163 -31.6288 168.927L-31.6384 168.694C-31.7676 167.072 -30.4931 165.85 -30.4506 164.315C-30.4465 164.18 -30.0977 164.056 -29.9064 163.923C-29.9678 163.578 -30.3874 163.656 -30.685 163.387C-30.2099 163.012 -29.7941 162.579 -29.4496 162.1C-29.1888 161.443 -29.0036 160.764 -28.897 160.073L-30.1052 158.654C-29.6593 157.843 -29.8148 157.105 -29.2195 156.469C-28.9604 156.191 -29.1049 155.341 -29.0729 154.754C-29.0307 153.984 -27.9427 153.525 -28.2052 152.916C-28.4077 152.216 -28.3421 151.475 -28.0192 150.813C-26.4626 144.568 -24.8771 138.328 -23.2627 132.095C-23.0929 131.427 -23.2406 130.587 -22.3372 130.195C-23.3244 129.268 -21.7741 128.944 -21.75 128.209C-21.6242 127.521 -21.3331 126.868 -20.8977 126.294C-20.2811 125.221 -20.2243 123.889 -19.8731 122.68C-19.7806 121.825 -19.4248 121.011 -18.8465 120.332C-18.2451 119.765 -18.3318 118.778 -17.8789 117.982C-17.2392 117.02 -16.7434 115.986 -16.4046 114.905C-16.3026 114.128 -15.9625 113.394 -15.423 112.784C-14.944 112.303 -15.3374 111.306 -14.4064 110.943C-14.1453 109.546 -13.2289 108.425 -12.5505 107.201L-12.4263 106.97C-10.7599 103.821 -8.88698 100.765 -6.81757 97.8202C-5.0983 95.3414 -3.4254 92.8362 -1.67989 90.3729C-1.11202 89.5779 -0.508209 88.7855 0.116238 88.0307C2.28546 85.2544 4.62201 82.5892 7.11519 80.0473C9.3954 77.8482 11.569 75.5502 13.9631 73.4357C15.2359 72.3108 16.2774 70.9296 17.5131 69.7346C20.425 66.9143 23.4153 64.1703 26.5604 61.5659C29.2165 59.1778 32.1211 57.0291 35.2336 55.1502C36.0797 54.682 36.7755 53.9953 37.5923 53.4769C38.584 52.9799 39.5354 52.4194 40.4396 51.7998C41.4916 50.8995 42.7823 50.3267 43.8449 49.4926C44.6697 48.8455 45.9891 49.2144 46.5794 48.0503C47.0096 47.2032 48.6201 47.5135 49.1625 46.5238C50.6491 46.4788 51.3434 45.1687 52.6936 44.7381L52.8735 44.6871C54.2959 44.3339 55.5099 43.2889 56.815 42.5481C58.0737 41.7369 59.3907 41.0032 60.7573 40.3519C63.323 39.3004 65.5375 37.6983 68.0452 36.6122C70.4364 35.5781 72.5882 34.0642 75.1961 33.4877C75.8123 33.3519 75.6974 32.8574 76.1215 32.6464C76.1215 32.6464 75.7953 33.2964 77.4444 32.3173C79.0936 31.3382 117.317 -57 226.772 -57Z" fill="#219653"/>
<path d="M102 295.5L98.5 268L172 259L162 300H102V295.5Z" fill="#B5D43C" stroke="#B5D43C"/>
<path fill-rule="evenodd" clip-rule="evenodd" d="M73.6797 108.724C70.6729 110.399 66.2705 108.263 65.7768 104.889C67.6945 104.788 69.7445 104.64 71.2605 103.476C72.7765 102.312 73.3073 99.7338 71.7876 98.5744C59.4154 97.074 47.3799 92.9231 36.7521 86.4912C44.0089 84.332 50.2533 79.7773 57.0695 76.5049C63.8858 73.2324 72.1301 71.297 78.9282 74.606C85.6034 77.8552 93.2879 73.7106 100.254 71.1234C112.366 66.6246 126.255 67.0017 138.099 72.1511C146.74 75.908 161.382 69.81 170.717 68.4115C185.965 66.1271 200.849 76.6798 216.16 74.8522C214.518 75.9247 212.875 76.9971 211.233 78.0695C212.851 77.9236 214.477 77.8645 216.101 77.8928C203.394 83.8969 190.688 89.901 177.982 95.9052C181.201 97.1909 184.419 98.4766 187.638 99.7623C186.882 102.158 184.169 103.776 181.67 103.322C183.681 104.902 185.692 106.483 187.703 108.063C185.556 109.569 182.839 110.26 180.223 109.967C183.009 111.744 185.309 114.257 186.817 117.174C193.455 114.99 200.725 114.722 207.51 116.409C201.38 117.202 195.251 117.996 189.121 118.789C190.047 121.278 190.972 123.767 191.898 126.255C199.906 124.446 208.416 124.857 216.206 127.431C208.481 127.625 200.756 127.819 193.031 128.013C192.85 138.133 187.748 148.454 178.789 153.372C169.83 158.29 151.927 162.663 145.997 148.343C141.457 151.286 141.779 158.358 145.015 162.663C148.252 166.969 153.395 169.351 158.046 172.119C173.494 181.313 187.158 195.315 191.898 212.5C196.637 229.685 192.401 249.866 183.806 265.525C195.393 267.304 206.161 273.816 213.031 283.199C227.827 276.401 236.022 260.89 247.355 249.296C260.247 236.107 278.044 227.7 296.533 226.065C307.473 225.098 319.948 227.181 326.329 236.008C334.623 247.482 329.239 268.189 316 273.464C305.505 277.645 290.288 276.21 279 277C256.301 278.588 237.49 288.27 218.772 301.05C218.009 305.188 219.541 309.667 222.689 312.501C229.384 305.668 237.83 300.519 247.017 297.671C250.412 296.618 255.503 296.893 255.88 300.388C256.023 301.71 255.318 302.965 254.605 304.094C248.48 313.79 239.843 321.924 229.746 327.508C224.416 330.456 218.46 332.74 212.361 332.403C206.262 332.065 200.051 328.589 197.98 322.914C197.02 320.285 196.916 317.241 195.098 315.099C192.022 311.474 186.114 312.559 181.803 314.618C177.492 316.677 172.896 319.477 168.269 318.255C156.704 315.2 144.668 313.891 132.707 314.385C117.474 315.015 101.953 318.516 87.1943 314.739C82.2641 313.477 76.7468 311.487 72.3793 314.074C63.772 319.173 69.5776 335.494 60.7472 340.207C57.6194 341.876 53.7861 341.26 50.3354 340.414C35.0864 336.677 20.7832 329.235 9.03994 318.928C7.90819 317.934 6.74218 316.819 6.42493 315.357C5.47331 310.971 12.0287 309.147 16.4955 309.959C24.0833 311.338 31.3403 314.461 37.5285 319.011C39.6978 320.606 42.9985 318.745 43.9175 316.233C44.8365 313.722 44.2041 310.956 43.8455 308.309C41.58 291.589 52.2022 274.012 68.1789 268.041C58.5059 254.102 54.8277 236.243 58.2189 219.681C61.6101 203.118 72.0257 188.073 86.4227 178.939C92.1741 175.291 98.782 172.307 102.447 166.609C106.113 160.911 104.504 151.352 97.7988 150.038C91.4809 156.795 81.2048 159.653 72.2447 157.145C63.2847 154.637 56.0555 146.88 54.2677 137.855C48.3206 139.838 42.3735 141.821 36.4265 143.804C41.705 139.787 47.9561 137.025 54.5068 135.816C55.1355 133.126 55.7642 130.436 56.3928 127.746C45.0452 127.023 33.5375 128.867 23.0038 133.097C29.4858 128.279 37.7332 125.831 45.8312 126.32C54.0679 126.819 62.4406 122.839 67.1843 116.171C64.2164 115.141 61.549 113.281 59.573 110.864C62.5998 109.241 66.2658 108.821 69.5886 109.715M131.894 285.143C131.353 285.662 130.772 286.279 130.81 287.022C130.848 287.765 131.978 288.32 132.368 287.683C134.494 284.204 138.192 281.703 142.246 281.003C146.299 280.302 150.638 281.414 153.834 283.973C154.95 284.865 155.945 285.932 157.22 286.585C157.678 286.82 158.463 286.826 158.482 286.316C158.489 286.149 158.392 285.996 158.296 285.858C156.001 282.517 152.568 279.952 148.688 278.679C145.287 277.563 141.346 277.492 138.304 279.364C137.199 280.044 136.257 280.947 135.325 281.844C134.181 282.944 133.037 284.043 131.894 285.143ZM115.399 279.064C110.996 278.489 106.255 279.948 103.323 283.242C102.806 283.823 102.336 284.476 102.158 285.229C101.98 285.982 102.148 286.853 102.738 287.361C105.007 283.881 109.038 281.586 113.224 281.391C117.41 281.196 121.642 283.106 124.232 286.36C124.637 286.868 125.023 287.424 125.598 287.735C126.173 288.046 127.009 288.006 127.359 287.459C127.777 286.806 127.272 285.97 126.756 285.388C123.831 282.088 119.803 279.638 115.399 279.064ZM146.46 274.612C146.392 275.347 147.376 275.805 148.082 275.564C148.789 275.323 149.258 274.68 149.731 274.109C153.668 269.355 161.164 267.922 166.612 270.883C167.327 270.287 167.367 269.144 166.889 268.35C166.411 267.557 165.538 267.069 164.647 266.788C162.717 266.179 160.621 266.387 158.636 266.783C153.936 267.722 149.188 269.923 146.717 273.981C146.597 274.177 146.481 274.384 146.46 274.612ZM127.982 290.036C126.051 290.169 124.16 290.673 122.352 291.357C119.852 292.301 117.392 293.677 115.929 295.89C118.074 296.49 120.131 294.91 122.09 293.86C126.487 291.504 132.19 291.747 136.364 294.469C137.673 295.324 139.356 296.427 140.633 295.525C137.645 291.827 132.761 289.708 127.982 290.036ZM135.919 288.844C137.384 288.089 138.555 286.865 140.008 286.089C142.01 285.02 144.503 284.897 146.603 285.763C147.743 286.233 148.753 286.969 149.876 287.477C151 287.984 152.338 288.248 153.457 287.731C153.581 287.674 153.71 287.598 153.762 287.473C153.847 287.27 153.696 287.05 153.549 286.885C151.045 284.062 147.12 282.532 143.338 282.905C139.556 283.278 136.015 285.543 134.125 288.8C134.519 289.312 135.34 289.141 135.919 288.844ZM106.576 288.978C107.361 288.537 107.975 287.856 108.693 287.315C110.128 286.233 111.998 285.734 113.791 285.94C115.79 286.169 117.593 287.214 119.246 288.347C119.73 288.679 120.223 289.027 120.796 289.159C121.37 289.291 122.053 289.148 122.377 288.663C122.698 288.183 122.569 287.514 122.226 287.05C121.882 286.585 121.367 286.28 120.865 285.989C118.821 284.806 116.662 283.623 114.296 283.502C111.339 283.351 108.59 284.873 106.033 286.347C104.995 286.945 103.804 287.85 104.024 289.016C104.734 289.567 105.791 289.419 106.576 288.978ZM119.894 277.659C120.428 278.341 121.473 277.61 122.062 276.974C123.878 275.015 126.495 273.802 129.181 273.675C131.867 273.548 134.589 274.507 136.586 276.285C137.09 276.734 137.621 277.264 138.299 277.282C138.977 277.3 139.588 276.366 139.05 275.958C136.171 273.773 132.821 271.988 129.198 271.752C125.575 271.516 121.671 273.122 119.993 276.301C119.769 276.727 119.596 277.279 119.894 277.659ZM151.927 277.061C152.405 276.861 152.756 276.455 153.122 276.091C155.909 273.322 160.632 272.703 164.054 274.658C164.91 275.148 166.198 275.687 166.695 274.843C167.11 274.139 166.371 273.32 165.666 272.898C161.062 270.141 154.5 271.191 151.013 275.242C150.658 275.655 150.317 276.221 150.561 276.706C150.792 277.165 151.449 277.26 151.927 277.061ZM154.472 277.321C154.274 277.484 154.076 277.667 153.993 277.908C153.761 278.581 154.589 279.211 155.307 279.155C156.025 279.098 156.635 278.643 157.286 278.34C158.875 277.6 160.783 277.776 162.395 278.464C163.033 278.736 163.651 279.087 164.338 279.189C165.025 279.291 165.826 279.066 166.139 278.454C163.407 275.11 157.811 274.567 154.472 277.321ZM111.277 276.038C111.685 276.227 112.241 276.191 112.504 275.829C112.861 275.338 112.478 274.668 112.1 274.193C110.817 272.583 109.438 270.998 107.676 269.918C105.914 268.838 103.694 268.319 101.731 268.981C101.531 269.697 102.434 270.183 103.144 270.427C105.878 271.369 108.359 273.016 110.274 275.16C110.572 275.493 110.87 275.849 111.277 276.038ZM135.437 277.834C132.211 275.803 127.807 275.767 124.547 277.746C123.981 278.09 123.399 278.574 123.355 279.229C123.311 279.884 124.212 280.492 124.659 280.006C126.459 278.046 129.75 277.639 131.984 279.101C133.081 279.818 134.657 279.72 135.654 278.873C136.125 278.824 135.837 278.086 135.437 277.834ZM158.907 288.828C154.323 288.523 150.057 291.186 146.729 294.315C146.971 294.868 147.798 294.721 148.357 294.482C152.147 292.863 155.936 291.243 159.726 289.624C160.011 289.252 159.378 288.86 158.907 288.828ZM115.276 290.844C115.84 291.16 116.392 291.589 117.04 291.59C117.688 291.59 118.331 290.82 117.92 290.325C116.625 288.766 114.591 287.835 112.55 287.866C110.509 287.896 108.504 288.889 107.258 290.486C107.412 291.066 108.131 291.334 108.732 291.247C109.333 291.16 109.863 290.826 110.42 290.588C111.962 289.928 113.815 290.026 115.276 290.844ZM138.009 290.419C137.957 290.865 138.469 291.206 138.923 291.181C139.376 291.157 139.775 290.895 140.172 290.678C141.842 289.77 143.899 289.584 145.708 290.177C146.868 290.557 148.315 291.179 149.152 290.3C149.225 289.798 148.715 289.419 148.261 289.18C146.636 288.326 144.847 287.683 143.006 287.699C141.165 287.716 139.265 288.479 138.214 289.971C138.119 290.107 138.028 290.255 138.009 290.419ZM134.588 270.86C136.483 271.53 138.248 272.556 139.76 273.868C140.383 274.409 140.98 275.009 141.736 275.346C142.492 275.683 143.474 275.692 144.066 275.118C142.756 274.126 141.68 272.835 140.947 271.375C140.551 270.588 139.498 270.444 138.61 270.402C137.312 270.339 136.014 270.276 134.716 270.214C134.579 270.396 134.531 270.64 134.588 270.86ZM117.66 275.359C118.33 274.741 118.825 273.962 119.444 273.295C120.404 272.259 121.668 271.502 123.042 271.14C123.635 270.984 124.414 270.684 124.324 270.085C122.645 269.797 120.729 269.565 119.405 270.624C117.551 272.108 116.08 274.056 115.17 276.235C116.066 276.431 116.99 275.977 117.66 275.359ZM102.734 274.609C103.938 275.383 105.141 276.157 106.344 276.932C106.854 277.259 107.504 277.595 108.033 277.298C108.523 277.023 108.598 276.313 108.342 275.816C108.087 275.319 107.599 274.987 107.131 274.676C106.152 274.024 105.172 273.373 104.192 272.722C103.372 272.176 102.035 271.741 101.589 272.613C101.204 273.364 102.02 274.149 102.734 274.609ZM128.07 283.916C128.531 284.367 129.176 284.855 129.761 284.578C130.028 284.452 130.199 284.193 130.358 283.946C130.879 283.132 131.401 282.318 131.923 281.504C130.557 280.004 127.876 279.964 126.464 281.422C126.356 281.534 126.25 281.663 126.231 281.816C126.2 282.06 126.391 282.27 126.568 282.443C127.069 282.934 127.569 283.425 128.07 283.916ZM107.014 295.558C107.992 295.897 109.147 295.997 110.01 295.43C108.711 293.954 107.188 292.671 105.508 291.636C105.032 291.342 104.494 291.058 103.938 291.136C103.382 291.215 102.89 291.839 103.159 292.326C103.986 293.82 105.387 294.995 107.014 295.558ZM160.704 283.697C161.166 283.145 161.629 282.594 162.091 282.042C162.25 281.852 162.419 281.637 162.409 281.391C162.396 281.078 162.106 280.853 161.829 280.699C160.868 280.166 159.734 279.943 158.639 280.073C158.22 280.122 157.784 280.235 157.49 280.533C157.195 280.831 157.111 281.361 157.407 281.657C158.078 282.329 158.749 283 159.421 283.672C159.64 283.891 159.918 284.13 160.223 284.064C160.425 284.021 160.572 283.854 160.704 283.697ZM112.446 271.776C112.861 272.217 113.382 272.668 113.989 272.619C115.292 272.512 115.712 270.293 117.013 270.414C117.362 269.846 116.409 269.391 115.736 269.38C113.993 269.353 112.25 269.326 110.507 269.298C111.076 270.18 111.726 271.01 112.446 271.776ZM123.21 295.965C126.835 295.95 130.461 295.934 134.086 295.919C133.768 295.211 132.918 294.924 132.15 294.767C129.634 294.252 126.996 294.33 124.516 294.994C123.961 295.143 123.327 295.409 123.21 295.965ZM145.595 292.198C144.396 292.252 143.196 292.305 141.997 292.359C141.609 292.376 141.112 292.487 141.065 292.867C141.043 293.037 141.13 293.2 141.213 293.349C141.53 293.918 141.868 294.509 142.416 294.868C142.965 295.226 143.79 295.261 144.217 294.767C144.544 294.389 144.57 293.798 144.959 293.482C145.211 293.279 145.559 293.239 145.837 293.073C146.115 292.907 146.292 292.476 146.035 292.28C145.914 292.189 145.747 292.191 145.595 292.198ZM114.535 294.18C114.856 293.686 114.553 292.987 114.053 292.669C113.554 292.352 112.93 292.313 112.336 292.284C111.681 292.252 110.818 292.371 110.701 293.009C110.645 293.312 110.801 293.61 110.953 293.88C111.397 294.673 112.051 295.582 112.965 295.492C113.672 295.423 114.151 294.771 114.535 294.18ZM161.921 287.076C162.46 287.12 162.942 286.76 163.32 286.378C164.472 285.215 165.205 283.655 165.36 282.036C164.978 281.795 164.512 282.168 164.22 282.509C163.239 283.655 162.258 284.8 161.277 285.945C160.928 286.353 161.383 287.032 161.921 287.076ZM101.916 278.962C102.463 279.638 103.518 279.85 104.289 279.439C104.683 279.228 105.017 278.81 104.938 278.374C104.868 277.985 104.51 277.722 104.18 277.5C103.703 277.179 103.226 276.857 102.749 276.536C102.603 276.438 102.436 276.335 102.263 276.371C102.144 276.395 102.049 276.481 101.969 276.572C101.392 277.223 101.369 278.286 101.916 278.962ZM144.28 271.828C144.853 272.302 145.701 271.812 146.27 271.332C146.887 270.812 147.504 270.291 148.12 269.771C147.771 269.441 147.213 269.516 146.741 269.612C145.367 269.893 143.994 270.173 142.62 270.453C143.174 270.911 143.727 271.369 144.28 271.828ZM165.846 265.175C166.192 265.6 166.92 265.509 167.316 265.129C167.713 264.749 167.859 264.188 167.973 263.655C168 263.526 168.026 263.388 167.971 263.268C167.833 262.964 167.376 263.056 167.07 263.197C166.247 263.575 165.278 264.476 165.846 265.175Z" fill="white"/>
<path fill-rule="evenodd" clip-rule="evenodd" d="M58.2192 219.681C61.6103 203.118 73.2053 189.254 87.6023 180.121C80.3231 189.974 57.985 206.132 65.1649 224.134C76.6417 252.91 121.289 257.436 119.735 257.749C93.3287 263.065 55.6943 232.012 58.2192 219.681Z" fill="#E7EAEE"/>
<path fill-rule="evenodd" clip-rule="evenodd" d="M142.354 76.3822C140.517 76.6023 138.898 78.0551 138.501 79.8398C153.372 71.9447 171.333 69.915 187.626 74.2885C187.64 82.402 181.876 90.2057 174.048 92.6716L157.077 98.0177C161.554 98.508 166.154 97.8597 170.314 96.1525C171.791 98.4517 174.226 100.131 176.92 100.71L171.704 101.84C172.473 104.154 174.043 106.2 176.091 107.557C174.353 106.969 172.419 106.963 170.677 107.54L171.845 111.728C164.153 110.675 155.934 111.709 149.456 115.937C142.977 120.164 138.626 127.936 139.794 135.517C141.16 127.275 146.88 119.859 154.564 116.369C162.248 112.878 171.673 113.414 178.9 117.753L173.998 121.339C175.881 122.079 178.112 121.89 179.839 120.844C183.613 122.493 182.568 129.31 178.47 129.783L183.891 130.155C184.831 139.258 179.136 148.646 170.564 152.123C161.993 155.6 151.26 152.877 145.447 145.75C138.232 149.389 138.738 160.416 143.88 166.597C147.47 170.913 152.413 173.716 157.364 176.524L157.365 176.524L157.365 176.524L157.365 176.524L157.365 176.525L157.365 176.525L157.365 176.525L157.365 176.525L157.365 176.525L157.365 176.525L157.365 176.525L157.365 176.525L157.366 176.525L157.366 176.525L157.366 176.525L157.366 176.525L157.366 176.525L157.366 176.525L157.366 176.526L157.366 176.526L157.366 176.526L157.366 176.526L157.366 176.526L157.367 176.526L157.367 176.526L157.367 176.526L157.367 176.526L157.367 176.526L157.367 176.526L157.367 176.526L157.367 176.526L157.367 176.526L157.367 176.526L157.367 176.527L157.368 176.527C159.508 177.74 161.65 178.955 163.685 180.293C174.499 187.406 182.561 198.498 185.923 210.892C180.051 214.775 174.827 219.612 170.526 225.15C176.889 224.857 183.12 222.294 187.812 218.04L188.814 227.61C183.663 229.176 179.034 232.374 175.778 236.615C180.369 237.077 185.104 236.018 189.045 233.648C187.633 244.66 185.085 255.529 181.454 266.034L169.613 265.938C172.423 258.272 175.268 250.025 173.198 242.133C171.129 234.241 161.846 227.727 154.54 231.523C162.943 224.835 169.306 215.68 172.604 205.533L151.444 232.503L135.207 232.639C134.696 225.085 134.205 217.342 136.38 210.082C138.555 202.821 143.985 196.025 151.467 194.369C152.279 194.189 153.143 194.043 154.018 193.895C157.675 193.277 161.531 192.624 162.605 189.361C150.476 188.664 138.318 196.331 133.857 207.49C130.678 215.442 131.238 224.305 131.847 232.832C120.635 231.235 109.154 231.492 98.0257 233.588C96.0938 227.086 94.0905 220.438 90.0382 214.969C85.9859 209.5 79.4074 205.352 72.579 206.027C83.5759 207.641 89.0233 219.707 93.17 229.894C97.3167 240.08 104.844 251.714 115.915 250.706C119.068 250.419 120.072 255.533 117.655 257.554C115.239 259.574 111.648 259.189 108.555 258.521C92.6224 255.078 77.7468 246.999 66.2695 235.557C64.0348 233.328 61.8738 230.891 60.8412 227.925C59.5673 224.266 60.1608 220.226 61.2563 216.511C66.8528 197.533 84.0762 184.531 100.444 173.153C109.25 167.032 108.934 151.863 99.8811 146.105C93.1794 152.118 84.2436 156.323 75.2428 155.342C66.2421 154.361 57.7235 147.084 57.4333 138.147C60.2602 137.901 63.031 137.044 65.4949 135.653C63.0764 134.805 60.3508 134.841 57.9563 135.754C57.3052 133.345 57.7807 130.663 59.2217 128.616L64.3534 128.075C63.3218 126.923 61.8829 126.134 60.3474 125.878C64.0509 119.784 72.6468 118.116 79.5355 120.175C86.4241 122.235 92.003 127.141 97.3404 131.909C91.7749 119.859 76.6835 115.975 63.507 113.506L69.2568 110.143C65.934 109.248 62.268 109.669 59.2411 111.291C61.2172 113.708 63.8846 115.569 66.8525 116.599C62.1088 123.267 53.736 127.246 45.4993 126.748C37.4013 126.258 29.154 128.706 22.6719 133.524C33.2057 129.295 44.7133 127.451 56.061 128.174L54.1749 136.243C47.6243 137.453 41.3731 140.215 36.0946 144.232L53.9358 138.282C55.7236 147.307 62.9528 155.065 71.9129 157.572C80.8729 160.08 91.1491 157.222 97.4669 150.466C104.172 151.779 105.781 161.339 102.116 167.036C99.2133 171.548 94.4661 174.358 89.76 177.144L89.7599 177.144L89.7598 177.144L89.7597 177.144L89.7596 177.144L89.7595 177.145L89.7594 177.145L89.7592 177.145L89.7591 177.145L89.759 177.145L89.7589 177.145L89.7588 177.145L89.7587 177.145L89.7586 177.145L89.7584 177.145L89.7583 177.145L89.7582 177.145L89.7581 177.145L89.758 177.145L89.7579 177.145L89.7578 177.146L89.7576 177.146L89.7575 177.146L89.7574 177.146L89.7573 177.146L89.7572 177.146L89.7571 177.146L89.757 177.146L89.7568 177.146L89.7567 177.146L89.7566 177.146L89.7565 177.146L89.7564 177.146L89.7563 177.146L89.7561 177.146C88.5201 177.878 87.2869 178.608 86.0909 179.367C71.6938 188.5 61.2782 203.546 57.8871 220.108C54.4959 236.67 58.1741 254.53 67.847 268.469C51.8704 274.439 41.2482 292.017 43.5136 308.736C43.5655 309.119 43.623 309.504 43.6808 309.89L43.6808 309.891L43.6809 309.891L43.6809 309.891L43.6809 309.891L43.6809 309.891C44.0228 312.178 44.3717 314.512 43.5856 316.661C42.6666 319.173 39.366 321.033 37.1967 319.438C31.0084 314.888 23.7514 311.765 16.1637 310.386C11.6969 309.574 5.14146 311.399 6.09308 315.784C6.41034 317.246 7.57635 318.362 8.70809 319.355C20.4514 329.662 34.7546 337.105 50.0036 340.842C53.4543 341.688 57.2875 342.303 60.4154 340.634C64.8684 338.258 65.5994 332.929 66.3338 327.576C67.0556 322.314 67.7807 317.029 72.0474 314.501C75.9003 312.219 80.6479 313.499 85.098 314.699C85.6924 314.859 86.2815 315.018 86.8625 315.166C97.444 317.875 108.417 316.841 119.396 315.807L119.396 315.807C123.73 315.399 128.064 314.991 132.375 314.812C144.336 314.318 156.372 315.628 167.938 318.682C171.966 319.746 175.97 317.761 179.784 315.871L179.786 315.87L179.792 315.867C180.356 315.588 180.916 315.311 181.471 315.046C185.782 312.987 191.69 311.901 194.766 315.526C195.982 316.959 196.431 318.796 196.883 320.642C197.106 321.556 197.33 322.471 197.648 323.342C199.719 329.017 205.93 332.493 212.029 332.83C218.129 333.168 224.084 330.883 229.414 327.936C239.511 322.352 248.148 314.217 254.273 304.521C254.986 303.392 255.691 302.138 255.548 300.815C255.171 297.32 250.081 297.046 246.685 298.099C237.498 300.947 229.052 306.095 222.357 312.929C219.209 310.095 217.677 305.615 218.44 301.477C237.158 288.697 257.086 275.48 279.786 273.891C283.345 273.642 286.958 273.681 290.567 273.719C298.405 273.803 306.22 273.886 313.406 271.023C326.645 265.749 334.291 247.909 325.997 236.436C319.616 227.608 307.141 225.526 296.201 226.493C277.712 228.128 259.915 236.534 247.023 249.723C243.442 253.387 240.174 257.442 236.912 261.49L236.912 261.49L236.912 261.49L236.912 261.49L236.911 261.491L236.911 261.491L236.911 261.491L236.911 261.491L236.911 261.491L236.911 261.491L236.91 261.492L236.91 261.492L236.91 261.492C229.85 270.252 222.819 278.977 212.699 283.627C205.829 274.243 195.062 267.731 183.474 265.953C192.069 250.293 194.294 231.336 189.554 214.151C184.815 196.966 173.163 181.74 157.714 172.547C156.872 172.046 156.014 171.557 155.154 171.068C151.264 168.853 147.334 166.617 144.684 163.091C141.447 158.785 141.125 151.713 145.665 148.771C151.702 156.951 164.371 158.718 173.331 153.8C182.29 148.882 187.392 138.561 187.573 128.44L210.748 127.858C202.957 125.285 194.447 124.873 186.439 126.683L183.663 119.217L202.051 116.836C195.267 115.149 187.996 115.418 181.359 117.601C179.851 114.685 177.551 112.171 174.765 110.395C177.381 110.688 180.098 109.996 182.245 108.491L176.211 103.75C178.711 104.203 181.423 102.585 182.18 100.19L172.523 96.3327L210.643 78.3203C209.018 78.292 207.392 78.351 205.775 78.497L210.702 75.2797C203.179 76.1777 195.758 74.0866 188.347 71.9981C180.676 69.8362 173.014 67.6771 165.258 68.839C162.212 69.2955 159.146 70.2526 156.097 71.2043C149.805 73.1684 143.588 75.1093 137.767 72.5786C125.923 67.4292 112.034 67.052 99.9218 71.5509C98.8507 71.9487 97.7626 72.3834 96.6638 72.8223C90.6167 75.2379 84.2451 77.7831 78.5963 75.0335C71.7982 71.7245 63.5539 73.6599 56.7377 76.9323C54.3449 78.0811 52.0226 79.3879 49.7023 80.6935L49.7022 80.6936C45.4126 83.1073 41.1296 85.5174 36.4202 86.9186C47.048 93.3506 59.0836 97.5015 71.4557 99.0019C72.9754 100.161 72.4446 102.739 70.9286 103.903C69.4126 105.067 67.3626 105.215 65.4449 105.316C65.9386 108.69 70.3411 110.827 73.3478 109.152C72.0842 109.384 71.99 107.357 72.515 106.198L75.7907 98.9697C78.3347 99.8922 81.5009 98.4121 82.391 95.8845C76.0911 96.6332 69.5544 97.3616 63.5192 95.4263C57.4841 93.4909 52.0918 88.0918 52.3747 81.8322C65.8144 74.1431 83.8567 75.1842 96.298 84.3668C95.3374 81.5984 92.9761 79.3431 90.1421 78.4871C93.4143 75.3061 97.7578 73.2185 102.312 72.6382C99.6064 74.7518 98.3666 78.5306 99.3028 81.8092L111.45 70.7773C109.457 74.3047 108.341 78.3108 108.226 82.3482C112.731 79.4412 116.32 75.1707 118.383 70.2625L123.787 71.0117C120.478 73.7717 118.635 78.1573 118.993 82.4192C123.11 79.8916 126.302 75.9272 127.868 71.3965C132.942 72.206 137.87 73.902 142.354 76.3822ZM291.616 271.675C288.899 271.586 286.18 271.497 283.478 271.573C263.361 272.137 244.659 281.812 228.062 293.05C227.829 293.208 227.596 293.366 227.363 293.524C224.213 295.663 221.032 297.823 217.437 299.085L213.213 286.929C212.986 286.277 212.847 285.38 213.461 285.052C219.92 281.603 225.817 277.132 230.86 271.862C234.22 268.351 237.2 264.492 240.177 260.638C244.392 255.18 248.601 249.731 253.871 245.29C262.286 238.198 272.881 234.139 283.511 231.111C291.378 228.871 299.622 227.114 307.714 228.344C315.806 229.575 323.773 234.344 326.741 241.879C329.097 247.864 327.944 254.923 324.313 260.25C320.682 265.577 314.786 269.203 308.468 270.724C302.974 272.046 297.299 271.861 291.616 271.675ZM60.1551 297.427C60.5804 298.426 60.8488 299.759 59.9996 300.445C58.9059 301.33 57.3542 300.19 56.4352 299.13L48.602 290.091C46.7267 294.905 45.8664 300.101 46.0917 305.254C46.1368 306.287 46.2221 307.335 46.3076 308.387L46.3076 308.387L46.3076 308.387L46.3076 308.387L46.3077 308.387L46.3077 308.387L46.3077 308.387L46.3077 308.388L46.3077 308.388L46.3077 308.388L46.3077 308.388L46.3077 308.388L46.3077 308.388L46.3078 308.388L46.3078 308.389L46.3078 308.389L46.3078 308.389L46.3078 308.389L46.3078 308.389L46.3078 308.389L46.3078 308.389L46.3078 308.39L46.3079 308.39L46.3079 308.39L46.3079 308.39L46.3079 308.39L46.3079 308.39L46.3079 308.39L46.3079 308.391L46.3079 308.391L46.308 308.391L46.308 308.391L46.308 308.391L46.308 308.391C46.6354 312.416 46.9671 316.494 45.0793 319.985C44.2513 321.516 42.8423 322.921 41.0883 323.033C40.0942 323.097 39.1261 322.738 38.2086 322.355C35.6936 321.305 33.2156 320.014 30.7382 318.723C24.3614 315.402 17.9895 312.083 11.0067 312.875C10.0532 312.983 8.86569 313.448 8.90292 314.395C8.91961 314.819 9.19978 315.183 9.47224 315.512C19.5397 327.653 35.2832 333.54 50.5232 337.986C53.0157 338.713 55.6427 339.421 58.1807 338.868C60.7188 338.316 63.0748 336.057 62.7683 333.508C61.9575 326.766 64.0969 319.727 68.5339 314.54C70.3052 312.469 72.5448 310.626 75.2325 310.074C78.5339 309.397 81.7605 310.74 84.938 312.063C85.7544 312.403 86.5675 312.741 87.3779 313.044C93.5894 315.363 100.571 315.616 106.938 313.753C104.449 313.721 103.253 310.774 102.737 308.369C99.395 292.789 97.6181 276.882 97.4411 260.958C97.4218 259.226 96.1918 257.695 94.7081 256.772C93.4521 255.991 92.0201 255.556 90.5961 255.124C90.3379 255.045 90.0799 254.967 89.8233 254.887C84.6378 253.265 79.7516 250.715 75.4732 247.398C74.9341 246.98 74.4031 246.549 73.8719 246.118C72.2344 244.789 70.5956 243.459 68.7158 242.506C66.2262 241.245 63.1451 240.731 60.6499 241.981C60.0933 243.291 61.0998 244.813 62.3878 245.445C63.3632 245.924 64.4559 246.054 65.5461 246.183H65.5463H65.5464H65.5465H65.5466H65.5468H65.5469H65.547H65.5471H65.5473H65.5474H65.5475H65.5476H65.5478H65.5479H65.548H65.5481H65.5483H65.5484H65.5485H65.5487H65.5488H65.5489H65.549H65.5492H65.5493H65.5494H65.5495H65.5497H65.5498H65.5499H65.55C65.898 246.225 66.2458 246.266 66.5894 246.319C68.2292 246.571 69.8253 247.098 71.2883 247.872C72.8251 248.685 74.2806 250.831 72.9111 251.896C72.3494 252.332 71.5621 252.302 70.8491 252.25L62.806 251.667C64.7668 256.934 67.2666 262.006 70.255 266.78C70.5233 267.208 70.8813 267.685 71.3916 267.689C79.2715 267.759 88.071 268.849 93.0646 274.868C94.0111 276.009 94.7876 277.658 93.976 278.896C89.3986 273.438 82.2386 270.188 75.0632 270.31C67.8878 270.433 60.8456 273.925 56.4618 279.536C60.3311 282.093 63.407 285.805 65.1802 290.056C65.7157 291.34 65.6172 293.44 64.2113 293.41L55.7681 283.203C55.3908 282.746 54.9375 282.251 54.3413 282.233C53.8632 282.219 53.4418 282.521 53.0625 282.808C52.2413 283.432 51.389 284.092 50.9603 285.023C50.5316 285.954 50.6911 287.236 51.5842 287.754C55.3903 289.961 58.4448 293.408 60.1551 297.427ZM156.414 313.402C161.836 308.936 163.605 301.581 165.061 294.759L170.396 269.759C170.453 269.492 170.519 269.209 170.713 269.015C170.97 268.759 171.373 268.731 171.738 268.72C181.464 268.43 191.818 269.345 199.651 275.044C196.455 276.609 193.661 278.968 191.598 281.842C191.02 282.649 190.536 283.862 191.281 284.522C191.561 284.769 191.95 284.857 192.324 284.883C194.192 285.014 195.897 283.863 197.262 282.597C197.556 282.324 197.845 282.042 198.134 281.76L198.134 281.76C199.186 280.732 200.243 279.699 201.578 279.096C203.281 278.326 205.645 278.542 206.584 280.141C203.549 281.668 201.047 284.208 199.586 287.248C199.206 288.039 198.892 288.953 199.2 289.775C199.508 290.596 200.72 291.078 201.315 290.429L207.181 284.035C207.464 283.726 207.858 283.387 208.255 283.53C208.47 283.607 208.609 283.807 208.732 283.997C211.84 288.813 213.076 294.421 214.316 300.053C215.043 303.351 215.771 306.657 216.879 309.818C217.766 312.35 219.479 315.194 222.192 315.196C223.692 315.197 225.018 314.286 226.206 313.381C227.474 312.415 228.736 311.4 230.004 310.381L230.005 310.38C235.97 305.587 242.07 300.685 249.582 300.098C250.766 300.006 252.286 300.264 252.564 301.404C252.725 302.066 252.364 302.733 252.004 303.314C246.421 312.339 238.046 319.454 228.793 324.781C224.056 327.508 218.862 329.85 213.378 329.892C207.895 329.934 202.089 327.166 200.017 322.153C199.594 321.13 199.336 320.05 199.078 318.972C198.779 317.724 198.48 316.478 197.929 315.323C196.507 312.345 193.356 310.249 190.027 310.067C186.857 309.893 183.942 311.288 181.034 312.679C180.012 313.168 178.991 313.656 177.96 314.076C171.115 316.864 163.067 316.612 156.414 313.402ZM120.22 259.581C118.18 261.301 115.434 261.987 112.758 262.181C107.937 262.53 103.018 261.416 98.833 259.027L100.56 265.48C100.634 265.758 100.723 266.058 100.957 266.229C101.16 266.378 101.429 266.397 101.681 266.41L126.492 267.697C130.109 267.885 133.73 268.073 137.351 267.969C147.506 267.68 157.585 265.062 166.57 260.38C167.089 260.11 167.617 259.823 167.99 259.377C168.435 258.845 168.611 258.148 168.76 257.474C170.018 251.774 170.236 245.852 169.399 240.077C169.194 238.658 168.907 237.203 168.1 236.013C167.292 234.822 165.84 233.952 164.414 234.22C149.813 236.965 134.908 236.117 120.005 235.269C114.388 234.95 108.771 234.63 103.17 234.503C102.171 234.48 101.119 234.476 100.241 234.948C99.3622 235.42 98.7576 236.542 99.2088 237.423C101.763 242.412 107.039 245.596 112.51 247.032C112.903 247.135 113.305 247.236 113.712 247.338C117.251 248.227 121.149 249.206 122.434 252.459C123.409 254.927 122.261 257.861 120.22 259.581ZM160.027 301.865C159.026 305.79 156.922 309.86 153.104 311.332C151.769 311.847 150.323 312 148.896 312.131C135.661 313.347 122.285 313.054 109.117 311.26C108.333 311.153 107.507 311.023 106.896 310.526C106.152 309.921 105.899 308.92 105.704 307.988C105.106 305.131 104.643 302.247 104.317 299.347C104.259 298.833 104.403 298.101 104.925 298.141C113.35 298.788 121.8 299.128 130.251 299.16C136.08 299.182 141.956 299.052 147.65 297.816C153.343 296.579 158.895 294.162 163.057 290.132C161.874 292.586 161.364 295.266 160.854 297.951C160.605 299.263 160.355 300.577 160.027 301.865ZM131.562 285.57C131.022 286.089 130.44 286.706 130.478 287.449C130.517 288.193 131.646 288.748 132.036 288.11C134.162 284.632 137.861 282.131 141.914 281.43C145.967 280.73 150.306 281.841 153.503 284.4C153.835 284.666 154.156 284.947 154.477 285.228C155.235 285.891 155.993 286.554 156.888 287.012C157.346 287.247 158.131 287.253 158.15 286.744C158.157 286.576 158.06 286.424 157.964 286.285C155.669 282.944 152.236 280.379 148.356 279.106C144.955 277.99 141.014 277.92 137.972 279.791C136.868 280.471 135.926 281.375 134.993 282.271L131.562 285.57ZM102.991 283.67C105.923 280.375 110.664 278.916 115.068 279.491C119.471 280.066 123.499 282.516 126.425 285.816C126.94 286.397 127.445 287.233 127.028 287.886C126.678 288.434 125.841 288.473 125.266 288.163C124.765 287.891 124.407 287.434 124.054 286.983C124.003 286.918 123.952 286.852 123.9 286.787C121.31 283.534 117.078 281.624 112.892 281.819C108.706 282.014 104.675 284.309 102.407 287.788C101.816 287.281 101.649 286.41 101.826 285.657C102.004 284.904 102.474 284.25 102.991 283.67ZM146.128 275.039C146.06 275.775 147.044 276.232 147.751 275.991C148.387 275.775 148.83 275.232 149.257 274.709L149.319 274.634L149.355 274.59L149.399 274.536C153.336 269.782 160.832 268.35 166.28 271.311C166.995 270.715 167.036 269.572 166.557 268.778C166.079 267.984 165.206 267.497 164.315 267.215C162.385 266.606 160.29 266.814 158.304 267.211C153.604 268.15 148.856 270.35 146.385 274.408C146.266 274.604 146.149 274.812 146.128 275.039ZM122.02 291.784C123.828 291.101 125.719 290.596 127.65 290.463C132.429 290.135 137.314 292.255 140.301 295.953C139.028 296.851 137.352 295.758 136.045 294.905L136.032 294.897C131.858 292.175 126.155 291.931 121.759 294.287C121.416 294.471 121.07 294.671 120.721 294.873L120.721 294.873C119.076 295.824 117.367 296.812 115.597 296.317C117.06 294.105 119.52 292.729 122.02 291.784ZM135.587 289.271C136.336 288.885 137.009 288.377 137.681 287.868C138.324 287.382 138.967 286.896 139.676 286.516C141.678 285.447 144.171 285.324 146.271 286.19C146.884 286.443 147.459 286.772 148.034 287.101L148.034 287.101L148.034 287.102L148.034 287.102L148.035 287.102L148.035 287.102L148.035 287.102L148.035 287.102L148.036 287.102L148.036 287.102L148.036 287.103L148.036 287.103C148.531 287.386 149.025 287.669 149.544 287.904C150.668 288.412 152.006 288.676 153.125 288.158C153.249 288.101 153.378 288.026 153.43 287.9C153.516 287.697 153.364 287.478 153.218 287.312C150.713 284.489 146.788 282.96 143.006 283.332C139.224 283.705 135.683 285.971 133.793 289.227C134.187 289.74 135.008 289.569 135.587 289.271ZM107.589 288.384C107.163 288.757 106.737 289.129 106.244 289.406C105.459 289.846 104.402 289.994 103.692 289.443C103.472 288.277 104.664 287.372 105.701 286.774C108.258 285.301 111.007 283.778 113.964 283.929C116.33 284.05 118.489 285.233 120.533 286.416C121.035 286.707 121.551 287.013 121.894 287.477C122.237 287.941 122.366 288.61 122.045 289.09C121.721 289.575 121.038 289.718 120.465 289.586C119.913 289.46 119.435 289.132 118.969 288.812L118.914 288.775C117.261 287.642 115.459 286.597 113.459 286.368C111.666 286.162 109.796 286.66 108.361 287.742C108.094 287.944 107.842 288.164 107.589 288.384ZM119.562 278.086C120.096 278.768 121.141 278.037 121.73 277.401C123.546 275.443 126.163 274.23 128.849 274.102C131.535 273.975 134.257 274.935 136.255 276.713C136.295 276.749 136.336 276.786 136.377 276.823C136.845 277.243 137.344 277.693 137.968 277.709C138.646 277.728 139.256 276.793 138.719 276.385C135.839 274.201 132.489 272.416 128.866 272.18C125.243 271.944 121.339 273.549 119.661 276.729C119.437 277.155 119.265 277.706 119.562 278.086ZM152.628 276.682C152.317 276.998 152.003 277.318 151.595 277.488C151.117 277.688 150.46 277.592 150.229 277.133C149.985 276.648 150.326 276.082 150.681 275.67C154.168 271.619 160.73 270.569 165.334 273.325C166.039 273.747 166.778 274.566 166.363 275.27C165.866 276.114 164.579 275.575 163.723 275.086C160.3 273.131 155.577 273.75 152.79 276.519L152.746 276.562L152.706 276.603L152.629 276.681L152.629 276.681L152.629 276.681L152.628 276.682L152.628 276.682L152.628 276.682ZM154.14 277.749C153.942 277.912 153.745 278.095 153.661 278.336C153.429 279.009 154.257 279.639 154.975 279.582C155.495 279.541 155.958 279.292 156.421 279.042C156.598 278.946 156.775 278.851 156.955 278.767C158.543 278.027 160.451 278.204 162.063 278.891C162.144 278.925 162.224 278.961 162.303 278.997L162.404 279.043L162.52 279.096C163.001 279.317 163.484 279.539 164.006 279.616C164.693 279.718 165.494 279.493 165.807 278.881C163.075 275.537 157.479 274.994 154.14 277.749ZM112.172 276.257C111.91 276.618 111.353 276.654 110.946 276.465C110.567 276.29 110.283 275.97 110.006 275.659L109.942 275.587C108.027 273.443 105.546 271.796 102.812 270.855C102.102 270.61 101.2 270.124 101.399 269.408C103.362 268.746 105.582 269.266 107.344 270.346C109.106 271.425 110.486 273.01 111.768 274.62C112.146 275.095 112.529 275.765 112.172 276.257ZM135.105 278.262C131.879 276.23 127.475 276.194 124.215 278.174C123.649 278.518 123.067 279.001 123.023 279.656C122.979 280.312 123.88 280.92 124.327 280.433C126.127 278.473 129.418 278.067 131.652 279.528C132.749 280.245 134.325 280.148 135.322 279.3C135.793 279.251 135.505 278.513 135.105 278.262ZM146.397 294.742C149.725 291.613 153.991 288.95 158.575 289.256C159.047 289.287 159.679 289.679 159.394 290.051L148.026 294.91C147.466 295.149 146.639 295.295 146.397 294.742ZM115.171 291.404L115.279 291.469C115.731 291.741 116.189 292.017 116.709 292.017C117.357 292.018 117.999 291.247 117.588 290.752C116.294 289.194 114.259 288.262 112.218 288.293C110.177 288.324 108.172 289.317 106.927 290.913C107.08 291.494 107.799 291.761 108.4 291.674C108.834 291.612 109.23 291.421 109.626 291.23C109.779 291.156 109.933 291.081 110.088 291.015C111.63 290.355 113.483 290.453 114.944 291.272C115.02 291.314 115.096 291.359 115.171 291.404ZM138.591 291.609C138.137 291.633 137.626 291.292 137.677 290.846C137.696 290.682 137.787 290.535 137.882 290.399C138.933 288.906 140.833 288.144 142.674 288.127C144.515 288.11 146.304 288.754 147.929 289.608C148.383 289.846 148.893 290.225 148.82 290.727C148.066 291.518 146.819 291.094 145.732 290.724C145.611 290.683 145.492 290.642 145.376 290.604C143.567 290.011 141.511 290.197 139.841 291.106C139.795 291.131 139.749 291.156 139.703 291.182L139.668 291.201C139.327 291.393 138.979 291.588 138.591 291.609ZM134.256 271.287C136.151 271.957 137.916 272.984 139.428 274.296C139.533 274.387 139.638 274.48 139.743 274.574L139.743 274.574C140.258 275.032 140.776 275.493 141.404 275.773C142.16 276.11 143.142 276.119 143.734 275.545C142.424 274.553 141.348 273.262 140.615 271.802C140.22 271.016 139.166 270.872 138.278 270.829L134.385 270.641C134.247 270.823 134.199 271.067 134.256 271.287ZM118.389 274.586L118.389 274.586C118.055 275.005 117.722 275.424 117.328 275.787C116.658 276.405 115.734 276.858 114.839 276.663C115.748 274.484 117.219 272.535 119.073 271.051C120.398 269.992 122.313 270.224 123.993 270.513C124.082 271.112 123.303 271.411 122.71 271.567C121.336 271.929 120.072 272.686 119.112 273.722C118.857 273.997 118.623 274.292 118.389 274.586ZM102.402 275.036L106.012 277.359C106.522 277.687 107.172 278.022 107.701 277.725C108.191 277.45 108.266 276.74 108.011 276.243C107.755 275.747 107.267 275.414 106.799 275.103L103.86 273.149C103.04 272.603 101.703 272.168 101.257 273.04C100.872 273.792 101.688 274.577 102.402 275.036ZM129.429 285.006C128.844 285.282 128.199 284.795 127.739 284.344L126.236 282.871C126.059 282.698 125.869 282.487 125.899 282.244C125.919 282.09 126.024 281.962 126.133 281.85C127.544 280.391 130.225 280.431 131.591 281.931L130.026 284.374C129.868 284.62 129.696 284.879 129.429 285.006ZM106.682 295.985C107.66 296.324 108.815 296.425 109.678 295.857C108.379 294.381 106.856 293.098 105.176 292.063C104.7 291.769 104.162 291.485 103.606 291.564C103.05 291.642 102.558 292.266 102.827 292.753C103.654 294.247 105.055 295.422 106.682 295.985ZM161.759 282.469L160.372 284.125C160.24 284.282 160.093 284.448 159.892 284.491C159.586 284.557 159.308 284.319 159.089 284.099L157.075 282.085C156.779 281.788 156.864 281.259 157.158 280.961C157.452 280.663 157.888 280.55 158.307 280.5C159.402 280.37 160.537 280.593 161.498 281.127C161.774 281.28 162.064 281.505 162.077 281.818C162.087 282.065 161.919 282.279 161.759 282.469ZM112.114 272.203C112.529 272.644 113.05 273.096 113.658 273.046C114.287 272.995 114.71 272.45 115.127 271.914C115.572 271.341 116.009 270.779 116.681 270.842C117.031 270.273 116.077 269.818 115.404 269.808L110.175 269.726C110.744 270.607 111.394 271.437 112.114 272.203ZM133.754 296.346L122.878 296.393C122.996 295.837 123.629 295.57 124.185 295.421C126.664 294.758 129.303 294.679 131.818 295.194C132.586 295.351 133.436 295.639 133.754 296.346ZM145.263 292.626L141.665 292.786C141.277 292.804 140.781 292.914 140.733 293.294C140.711 293.464 140.798 293.627 140.881 293.777C141.198 294.346 141.536 294.937 142.084 295.295C142.633 295.653 143.458 295.689 143.885 295.195C144.032 295.025 144.118 294.812 144.203 294.601C144.308 294.341 144.413 294.084 144.628 293.91C144.77 293.794 144.944 293.732 145.118 293.669L145.118 293.669C145.252 293.62 145.385 293.572 145.506 293.5C145.783 293.334 145.96 292.903 145.703 292.708C145.582 292.616 145.416 292.619 145.263 292.626ZM113.721 293.097C114.221 293.414 114.524 294.113 114.203 294.607C113.82 295.198 113.341 295.85 112.633 295.92C111.72 296.009 111.066 295.1 110.621 294.308C110.47 294.038 110.313 293.74 110.369 293.436C110.487 292.799 111.349 292.68 112.005 292.712C112.598 292.741 113.222 292.779 113.721 293.097ZM161.59 287.504C162.128 287.548 162.611 287.187 162.988 286.806C164.14 285.643 164.873 284.083 165.028 282.463C164.646 282.223 164.18 282.596 163.888 282.937L160.945 286.373C160.597 286.78 161.051 287.46 161.59 287.504ZM103.957 279.866C103.186 280.277 102.131 280.066 101.584 279.39C101.037 278.714 101.06 277.651 101.637 276.999C101.717 276.909 101.812 276.822 101.931 276.798C102.104 276.763 102.272 276.866 102.417 276.964L103.848 277.927C104.178 278.149 104.536 278.413 104.606 278.801C104.685 279.237 104.352 279.655 103.957 279.866ZM143.948 272.255C144.521 272.73 145.37 272.239 145.938 271.76L147.789 270.198C147.439 269.869 146.882 269.943 146.409 270.04L142.289 270.881L143.948 272.255ZM60.6533 236.471C60.2326 236.102 60.1248 235.498 60.1122 234.942C60.0979 234.315 60.1723 233.686 60.3326 233.079L63.0635 236.59C63.2264 236.799 63.3602 237.159 63.1194 237.274C62.778 237.048 62.3582 236.984 61.9412 236.92C61.4693 236.848 61.0009 236.777 60.6533 236.471ZM165.514 265.603C165.86 266.028 166.588 265.936 166.985 265.557C167.381 265.177 167.527 264.616 167.641 264.082C167.668 263.954 167.694 263.815 167.639 263.695C167.501 263.391 167.044 263.483 166.738 263.624C165.915 264.003 164.946 264.903 165.514 265.603ZM134.611 110.389C134.945 109.565 135.723 109.008 136.49 108.544C138.802 107.141 141.369 106.151 144.032 105.635C144.669 105.511 145.428 105.451 145.87 105.92C146.368 106.448 146.119 107.362 145.567 107.834C145.075 108.254 144.427 108.427 143.794 108.596C143.716 108.616 143.639 108.637 143.562 108.658C141.433 109.24 139.43 110.268 137.723 111.654C137.067 112.187 136.29 112.815 135.471 112.59C134.605 112.353 134.277 111.213 134.611 110.389ZM86.7166 110.582C86.0984 110.252 85.681 109.427 86.0656 108.846C86.2894 108.508 86.7065 108.354 87.1029 108.255C90.3131 107.45 93.6367 108.87 96.5404 110.444C97.1941 110.798 97.8669 111.183 98.2789 111.797C98.691 112.411 98.7512 113.32 98.2135 113.83C97.3137 114.684 95.8871 113.805 94.8712 113.09C93.0922 111.837 90.9546 111.086 88.7738 110.947C88.6764 110.941 88.5784 110.936 88.4801 110.931C87.8699 110.899 87.2489 110.867 86.7166 110.582ZM120.37 156.031L118.258 150.084C116.379 151.423 114.974 153.399 114.336 155.599C113.759 155.136 113.738 154.353 113.717 153.583C113.711 153.353 113.704 153.125 113.683 152.906C113.559 151.61 112.734 150.399 111.565 149.797C110.396 149.194 108.919 149.217 107.77 149.857C108.075 150.516 108.793 150.725 109.532 150.94C110.022 151.083 110.522 151.228 110.917 151.51C111.75 152.105 111.989 153.226 112.002 154.241C112.005 154.495 111.998 154.752 111.992 155.008V155.009V155.009C111.972 155.776 111.952 156.544 112.195 157.266C112.273 157.499 112.384 157.731 112.575 157.889C113.117 158.334 113.937 157.964 114.486 157.527C115.725 156.541 116.699 155.233 117.284 153.771C117.8 154.28 117.991 154.994 118.18 155.704L118.18 155.704L118.18 155.704C118.235 155.912 118.291 156.12 118.354 156.321C118.634 157.211 119.302 158.162 120.245 158.119C120.873 158.09 121.379 157.623 121.823 157.184L124.378 154.664C124.686 154.361 125.02 153.974 124.921 153.556C124.826 153.154 124.344 152.939 123.93 152.997C123.516 153.055 123.162 153.312 122.839 153.573C121.931 154.304 121.102 155.129 120.37 156.031ZM114.534 132.176C114.67 131.086 114.745 129.816 113.934 129.064C112.421 127.662 111.096 126.062 110.004 124.32C109.527 123.56 109.08 122.672 109.307 121.806C109.65 120.5 111.259 120.027 112.616 119.864C114.787 119.603 116.984 119.559 119.164 119.732C120.101 119.806 121.094 119.945 121.811 120.545C122.528 121.145 122.787 122.362 122.095 122.99C118.703 126.069 116.717 130.604 116.768 135.153C118.026 135.959 119.304 136.775 120.737 137.211C122.17 137.647 123.803 137.661 125.095 136.911C125.64 136.595 126.096 136.163 126.554 135.729C126.87 135.43 127.186 135.13 127.532 134.868C128.379 134.227 129.591 133.83 130.499 134.384L127.046 137.524C125.67 138.775 123.961 140.12 122.14 139.699C121.537 139.56 121.007 139.237 120.476 138.914C120.159 138.722 119.842 138.529 119.509 138.374C117.725 137.545 115.633 137.855 113.706 138.263C113.588 138.288 113.471 138.313 113.353 138.339C111.534 138.728 109.652 139.13 107.867 138.647C105.966 138.132 104.299 136.181 104.894 134.325C106.091 136.055 108.174 137.151 110.295 137.167C111.109 137.173 111.949 137.019 112.624 136.569C114.005 135.647 114.33 133.81 114.534 132.176Z" fill="#00160A"/>
<mask id="path-6-inside-1" fill="white">
<path fill-rule="evenodd" clip-rule="evenodd" d="M213.923 146.847C214.408 146.582 214.94 146.381 215.509 146.26C218.652 145.592 221.742 147.599 222.41 150.742L227.612 175.215L234.187 150.677C234.664 148.896 235.918 147.53 237.487 146.847C237.972 146.582 238.504 146.381 239.073 146.26C242.216 145.592 245.305 147.599 245.974 150.742L255.953 197.693C256.621 200.836 254.615 203.925 251.472 204.594C248.329 205.262 245.239 203.255 244.571 200.112L239.447 176.005L233.003 200.053C232.528 201.827 231.282 203.189 229.722 203.875C229.177 204.207 228.568 204.453 227.908 204.594C224.765 205.262 221.676 203.255 221.008 200.112L215.883 176.005L209.44 200.053C208.608 203.157 205.418 204.999 202.314 204.167C199.21 203.336 197.368 200.146 198.2 197.042L210.623 150.677C211.1 148.896 212.354 147.53 213.923 146.847Z"/>
</mask>
<path fill-rule="evenodd" clip-rule="evenodd" d="M213.923 146.847C214.408 146.582 214.94 146.381 215.509 146.26C218.652 145.592 221.742 147.599 222.41 150.742L227.612 175.215L234.187 150.677C234.664 148.896 235.918 147.53 237.487 146.847C237.972 146.582 238.504 146.381 239.073 146.26C242.216 145.592 245.305 147.599 245.974 150.742L255.953 197.693C256.621 200.836 254.615 203.925 251.472 204.594C248.329 205.262 245.239 203.255 244.571 200.112L239.447 176.005L233.003 200.053C232.528 201.827 231.282 203.189 229.722 203.875C229.177 204.207 228.568 204.453 227.908 204.594C224.765 205.262 221.676 203.255 221.008 200.112L215.883 176.005L209.44 200.053C208.608 203.157 205.418 204.999 202.314 204.167C199.21 203.336 197.368 200.146 198.2 197.042L210.623 150.677C211.1 148.896 212.354 147.53 213.923 146.847Z" fill="#B5D43C"/>
<path d="M215.509 146.26L214.885 143.326L215.509 146.26ZM213.923 146.847L215.121 149.598C215.203 149.562 215.284 149.522 215.363 149.479L213.923 146.847ZM222.41 150.742L225.344 150.118L222.41 150.742ZM227.612 175.215L224.677 175.839C224.966 177.195 226.147 178.178 227.533 178.214C228.92 178.25 230.151 177.331 230.51 175.991L227.612 175.215ZM234.187 150.677L237.084 151.454V151.454L234.187 150.677ZM237.487 146.847L238.685 149.598C238.767 149.562 238.848 149.522 238.927 149.479L237.487 146.847ZM239.073 146.26L239.697 149.195V149.195L239.073 146.26ZM245.974 150.742L243.039 151.365V151.365L245.974 150.742ZM255.953 197.693L258.888 197.069L255.953 197.693ZM251.472 204.594L250.848 201.659L250.848 201.659L251.472 204.594ZM244.571 200.112L241.637 200.736V200.736L244.571 200.112ZM239.447 176.005L242.382 175.381C242.093 174.024 240.912 173.042 239.526 173.006C238.139 172.969 236.908 173.888 236.549 175.228L239.447 176.005ZM233.003 200.053L235.901 200.83V200.83L233.003 200.053ZM229.722 203.875L228.515 201.129C228.394 201.182 228.276 201.243 228.164 201.312L229.722 203.875ZM227.908 204.594L227.285 201.659L227.285 201.659L227.908 204.594ZM221.008 200.112L223.942 199.488L221.008 200.112ZM215.883 176.005L218.818 175.381C218.529 174.024 217.349 173.042 215.962 173.006C214.575 172.969 213.345 173.888 212.986 175.228L215.883 176.005ZM209.44 200.053L212.337 200.83L209.44 200.053ZM202.314 204.167L201.537 207.065H201.537L202.314 204.167ZM198.2 197.042L201.097 197.818L198.2 197.042ZM210.623 150.677L207.725 149.901V149.901L210.623 150.677ZM214.885 143.326C214.028 143.508 213.221 143.811 212.483 144.216L215.363 149.479C215.595 149.352 215.852 149.254 216.133 149.195L214.885 143.326ZM225.344 150.118C224.332 145.354 219.649 142.313 214.885 143.326L216.133 149.195C217.655 148.871 219.152 149.843 219.475 151.365L225.344 150.118ZM230.546 174.591L225.344 150.118L219.475 151.365L224.677 175.839L230.546 174.591ZM231.289 149.901L224.714 174.439L230.51 175.991L237.084 151.454L231.289 149.901ZM236.289 144.097C233.918 145.129 232.013 147.2 231.289 149.901L237.084 151.454C237.315 150.592 237.918 149.932 238.685 149.598L236.289 144.097ZM238.449 143.326C237.592 143.508 236.785 143.811 236.047 144.215L238.927 149.479C239.159 149.352 239.416 149.254 239.697 149.195L238.449 143.326ZM248.908 150.118C247.895 145.354 243.213 142.313 238.449 143.326L239.697 149.195C241.219 148.871 242.716 149.843 243.039 151.365L248.908 150.118ZM258.888 197.069L248.908 150.118L243.039 151.365L253.019 198.317L258.888 197.069ZM252.096 207.528C256.859 206.515 259.9 201.833 258.888 197.069L253.019 198.317C253.342 199.839 252.371 201.335 250.848 201.659L252.096 207.528ZM241.637 200.736C242.649 205.5 247.332 208.541 252.096 207.528L250.848 201.659C249.326 201.983 247.829 201.011 247.506 199.488L241.637 200.736ZM236.513 176.628L241.637 200.736L247.506 199.488L242.382 175.381L236.513 176.628ZM235.901 200.83L242.345 176.781L236.549 175.228L230.105 199.277L235.901 200.83ZM230.93 206.621C233.287 205.585 235.18 203.52 235.901 200.83L230.105 199.277C229.876 200.135 229.277 200.794 228.515 201.129L230.93 206.621ZM228.532 207.528C229.526 207.317 230.451 206.943 231.281 206.439L228.164 201.312C227.903 201.47 227.609 201.59 227.285 201.659L228.532 207.528ZM218.073 200.736C219.086 205.5 223.768 208.541 228.532 207.528L227.285 201.659C225.762 201.983 224.266 201.011 223.942 199.488L218.073 200.736ZM212.949 176.628L218.073 200.736L223.942 199.488L218.818 175.381L212.949 176.628ZM212.986 175.228L206.542 199.277L212.337 200.83L218.781 176.781L212.986 175.228ZM206.542 199.277C206.139 200.78 204.594 201.673 203.09 201.27L201.537 207.065C206.242 208.326 211.077 205.534 212.337 200.83L206.542 199.277ZM203.09 201.27C201.587 200.867 200.695 199.322 201.097 197.818L195.302 196.265C194.041 200.969 196.833 205.805 201.537 207.065L203.09 201.27ZM201.097 197.818L213.521 151.454L207.725 149.901L195.302 196.265L201.097 197.818ZM213.521 151.454C213.752 150.592 214.354 149.932 215.121 149.598L212.725 144.097C210.355 145.129 208.449 147.2 207.725 149.901L213.521 151.454Z" fill="black" mask="url(#path-6-inside-1)"/>
<mask id="path-8-inside-2" fill="white">
<path fill-rule="evenodd" clip-rule="evenodd" d="M238.904 137C236.753 137 235.009 138.744 235.009 140.896C235.009 143.047 236.753 144.791 238.904 144.791H246.913L256.087 187.951C256.22 188.579 256.49 189.143 256.859 189.618C256.816 189.778 256.793 189.945 256.793 190.118C256.793 191.183 257.657 192.046 258.721 192.046H299.847C300.84 192.046 301.657 191.296 301.763 190.332C301.813 190.227 301.854 190.116 301.886 189.999L309.869 160.206C309.907 160.063 309.928 159.92 309.933 159.778C309.977 159.617 310 159.448 310 159.274C310 158.209 309.137 157.346 308.072 157.346H258.006L254.444 140.587C254.288 139.85 253.943 139.202 253.472 138.681C252.769 137.665 251.596 137 250.267 137H238.904ZM267.332 204.641C270.171 204.641 272.473 202.339 272.473 199.5C272.473 196.661 270.171 194.359 267.332 194.359C264.493 194.359 262.191 196.661 262.191 199.5C262.191 202.339 264.493 204.641 267.332 204.641ZM289.951 204.641C292.79 204.641 295.092 202.339 295.092 199.5C295.092 196.661 292.79 194.359 289.951 194.359C287.112 194.359 284.81 196.661 284.81 199.5C284.81 202.339 287.112 204.641 289.951 204.641Z"/>
</mask>
<path fill-rule="evenodd" clip-rule="evenodd" d="M238.904 137C236.753 137 235.009 138.744 235.009 140.896C235.009 143.047 236.753 144.791 238.904 144.791H246.913L256.087 187.951C256.22 188.579 256.49 189.143 256.859 189.618C256.816 189.778 256.793 189.945 256.793 190.118C256.793 191.183 257.657 192.046 258.721 192.046H299.847C300.84 192.046 301.657 191.296 301.763 190.332C301.813 190.227 301.854 190.116 301.886 189.999L309.869 160.206C309.907 160.063 309.928 159.92 309.933 159.778C309.977 159.617 310 159.448 310 159.274C310 158.209 309.137 157.346 308.072 157.346H258.006L254.444 140.587C254.288 139.85 253.943 139.202 253.472 138.681C252.769 137.665 251.596 137 250.267 137H238.904ZM267.332 204.641C270.171 204.641 272.473 202.339 272.473 199.5C272.473 196.661 270.171 194.359 267.332 194.359C264.493 194.359 262.191 196.661 262.191 199.5C262.191 202.339 264.493 204.641 267.332 204.641ZM289.951 204.641C292.79 204.641 295.092 202.339 295.092 199.5C295.092 196.661 292.79 194.359 289.951 194.359C287.112 194.359 284.81 196.661 284.81 199.5C284.81 202.339 287.112 204.641 289.951 204.641Z" fill="#B5D43C"/>
<path d="M246.913 144.791L249.847 144.168C249.553 142.782 248.329 141.791 246.913 141.791V144.791ZM256.087 187.951L253.152 188.574V188.574L256.087 187.951ZM256.859 189.618L259.757 190.394C260 189.488 259.804 188.52 259.229 187.779L256.859 189.618ZM301.763 190.332L299.055 189.041C298.91 189.344 298.818 189.67 298.781 190.003L301.763 190.332ZM301.886 189.999L298.988 189.223L298.988 189.223L301.886 189.999ZM309.869 160.206L306.971 159.429L306.971 159.429L309.869 160.206ZM309.933 159.778L307.037 158.995C306.978 159.214 306.944 159.439 306.936 159.665L309.933 159.778ZM258.006 157.346L255.072 157.97C255.367 159.355 256.59 160.346 258.006 160.346V157.346ZM254.444 140.587L257.379 139.963V139.963L254.444 140.587ZM253.472 138.681L251.005 140.389C251.079 140.495 251.16 140.597 251.248 140.694L253.472 138.681ZM238.009 140.896C238.009 140.401 238.41 140 238.904 140V134C235.096 134 232.009 137.087 232.009 140.896H238.009ZM238.904 141.791C238.41 141.791 238.009 141.39 238.009 140.896H232.009C232.009 144.704 235.096 147.791 238.904 147.791V141.791ZM246.913 141.791H238.904V147.791H246.913V141.791ZM259.021 187.327L249.847 144.168L243.978 145.415L253.152 188.574L259.021 187.327ZM259.229 187.779C259.132 187.653 259.058 187.503 259.021 187.327L253.152 188.574C253.382 189.655 253.849 190.632 254.489 191.457L259.229 187.779ZM259.793 190.118C259.793 190.21 259.781 190.303 259.757 190.394L253.961 188.842C253.851 189.253 253.793 189.681 253.793 190.118H259.793ZM258.721 189.046C259.313 189.046 259.793 189.526 259.793 190.118H253.793C253.793 192.84 256 195.046 258.721 195.046V189.046ZM299.847 189.046H258.721V195.046H299.847V189.046ZM298.781 190.003C298.841 189.464 299.293 189.046 299.847 189.046V195.046C302.386 195.046 304.473 193.128 304.745 190.66L298.781 190.003ZM298.988 189.223C299.004 189.162 299.027 189.101 299.055 189.041L304.472 191.622C304.6 191.353 304.705 191.07 304.783 190.776L298.988 189.223ZM306.971 159.429L298.988 189.223L304.783 190.776L312.766 160.982L306.971 159.429ZM306.936 159.665C306.939 159.584 306.951 159.505 306.971 159.429L312.766 160.982C312.863 160.621 312.918 160.255 312.931 159.89L306.936 159.665ZM307 159.274C307 159.182 307.012 159.088 307.037 158.995L312.83 160.56C312.941 160.147 313 159.715 313 159.274H307ZM308.072 160.346C307.48 160.346 307 159.866 307 159.274H313C313 156.552 310.794 154.346 308.072 154.346V160.346ZM258.006 160.346H308.072V154.346H258.006V160.346ZM251.51 141.21L255.072 157.97L260.941 156.722L257.379 139.963L251.51 141.21ZM251.248 140.694C251.373 140.833 251.466 141.005 251.51 141.21L257.379 139.963C257.109 138.695 256.513 137.571 255.697 136.668L251.248 140.694ZM250.267 140C250.57 140 250.839 140.148 251.005 140.389L255.939 136.974C254.699 135.183 252.622 134 250.267 134V140ZM238.904 140H250.267V134H238.904V140ZM269.473 199.5C269.473 200.682 268.514 201.641 267.332 201.641V207.641C271.828 207.641 275.473 203.996 275.473 199.5H269.473ZM267.332 197.359C268.514 197.359 269.473 198.318 269.473 199.5H275.473C275.473 195.004 271.828 191.359 267.332 191.359V197.359ZM265.191 199.5C265.191 198.318 266.15 197.359 267.332 197.359V191.359C262.836 191.359 259.191 195.004 259.191 199.5H265.191ZM267.332 201.641C266.15 201.641 265.191 200.682 265.191 199.5H259.191C259.191 203.996 262.836 207.641 267.332 207.641V201.641ZM292.092 199.5C292.092 200.682 291.133 201.641 289.951 201.641V207.641C294.447 207.641 298.092 203.996 298.092 199.5H292.092ZM289.951 197.359C291.133 197.359 292.092 198.318 292.092 199.5H298.092C298.092 195.004 294.447 191.359 289.951 191.359V197.359ZM287.81 199.5C287.81 198.318 288.769 197.359 289.951 197.359V191.359C285.455 191.359 281.81 195.004 281.81 199.5H287.81ZM289.951 201.641C288.769 201.641 287.81 200.682 287.81 199.5H281.81C281.81 203.996 285.455 207.641 289.951 207.641V201.641Z" fill="black" mask="url(#path-8-inside-2)"/>
</svg>
